<?xml version="1.0" ?><!DOCTYPE svg  PUBLIC '-//W3C//DTD SVG 1.1//EN'  'http://www.w3.org/Graphics/SVG/1.1/DTD/svg11.dtd'><svg enable-background="new 0 0 800 800" height="800px" id="Layer_1" version="1.1" viewBox="0 0 800 800" width="800px" xml:space="preserve" xmlns="http://www.w3.org/2000/svg" xmlns:xlink="http://www.w3.org/1999/xlink"><g><path d="M162.34,262.463c0.19-8.17-6.294-14.943-14.464-15.125c-7.979-0.198-14.943,6.286-15.133,14.464   c-0.785,34.958,4.7,72.998,16.314,113.045c1.875,6.476,7.79,10.689,14.208,10.689c1.362,0,2.75-0.19,4.13-0.596   c7.847-2.271,12.366-10.481,10.094-18.338C166.718,329.455,161.621,294.414,162.34,262.463z" fill="#000000"/><path d="M217.62,103.176c-6.757,4.668-13.737,10.565-21.354,18.033c-5.832,5.725-5.923,15.1-0.198,20.932   c2.899,2.958,6.732,4.436,10.564,4.436c3.743,0,7.493-1.403,10.368-4.237c6.394-6.27,12.093-11.11,17.437-14.795   c6.725-4.642,8.418-13.86,3.775-20.593C233.562,100.227,224.344,98.534,217.62,103.176z" fill="#000000"/><path d="M357.783,247.338c-8.178,0.174-14.654,6.947-14.481,15.116c0.231,10.4-0.141,21.098-1.091,31.795   c-0.718,8.137,5.295,15.332,13.44,16.05c0.446,0.041,0.884,0.059,1.321,0.059c7.583,0,14.043-5.791,14.729-13.489   c1.049-11.779,1.454-23.576,1.198-35.058C372.718,253.632,365.771,247.132,357.783,247.338z" fill="#000000"/><path d="M708.527,144.825c-17.281-33.769-51.645-55.064-90.201-55.064c-51.678,0-94.467,38.825-100.721,88.834   c-17.279,0.396-32.678,8.517-42.896,21.022C441.404,110.734,355.61,47.286,255.246,47.286   c-129.186,0-234.283,105.105-234.283,234.3c0,79.573,33.133,122.511,71.503,172.238c10.259,13.3,20.865,27.054,31.579,42.386   c18.983,27.185,75.922,135.198,76.492,136.289l0.892,1.692c-1.635,2.379-2.593,5.254-2.593,8.36v46.97   c-0.017,0.445-0.133,0.858-0.133,1.304v27.633c0,18.892,15.364,34.256,34.248,34.256h42.417c18.884,0,34.248-15.364,34.248-34.256   v-27.633c0-0.768-0.174-1.485-0.223-2.246v-46.027c0-2.247-0.537-4.354-1.437-6.262l1.999-3.791   c0.578-1.091,57.509-109.096,76.5-136.281c10.714-15.34,21.328-29.094,31.588-42.394c37.883-49.107,70.602-91.666,71.42-169.339   c8.617,5.221,18.678,8.285,29.473,8.285c15.977,0,30.961-6.749,41.576-18.074c16.875,11.747,36.883,18.074,57.814,18.074   c16.496,0,32.57-3.973,47.047-11.564c11.797,7.509,25.543,11.564,39.65,11.564c40.807,0,74.014-33.198,74.014-74.014   C779.037,179.123,747.715,146.659,708.527,144.825z M304.817,579.268c-7.071,13.102-13.101,24.419-16.876,31.53h-65.39   c-3.8-7.162-9.896-18.603-17.033-31.818L304.817,579.268z M279.788,657.024c-1.462-0.19-2.908-0.447-4.419-0.447h-42.417   c-1.544,0-3.023,0.257-4.511,0.456v-14.481c0-0.735-0.115-1.445-0.222-2.147h51.785c-0.108,0.702-0.215,1.412-0.215,2.147V657.024z    M275.368,723.107h-42.417c-2.561,0-4.642-2.082-4.642-4.649v-2.636c0.033-0.438,0.131-0.868,0.131-1.313v-24.336   c0.331-2.237,2.181-3.989,4.511-3.989h42.417c2.164,0,3.899,1.52,4.419,3.52v24.806c0,0.776,0.107,1.512,0.223,2.254v1.695   C280.011,721.025,277.929,723.107,275.368,723.107z M394.6,435.743c-10.467,13.571-21.296,27.605-32.415,43.516   c-9.12,13.052-25.682,42.17-41.252,70.454l-28.887-0.084c8.599-26.829,19.23-53.503,29.671-79.391   c15.835-39.253,32.208-79.846,41.872-122.47c1.809-7.971-3.188-15.901-11.167-17.702c-7.972-1.817-15.902,3.188-17.703,11.16   c-9.135,40.303-25.062,79.771-40.459,117.942c-11.788,29.226-23.906,59.427-33.273,90.369l-16.339-0.049   c-9.368-31.034-21.271-60.5-32.844-88.999c-5.105-12.571-10.202-25.136-15.092-37.84c-2.933-7.634-11.516-11.44-19.132-8.501   c-7.624,2.941-11.432,11.499-8.5,19.132c4.956,12.87,10.119,25.606,15.298,38.345c10.21,25.153,20.602,51.1,29.159,77.772   l-24.178-0.065c-15.513-28.17-31.968-57.081-41.046-70.074c-11.11-15.91-21.94-29.944-32.415-43.516   c-37.932-49.158-65.332-84.679-65.332-154.157c0-112.871,91.815-204.694,204.678-204.694s204.686,91.823,204.686,204.694   C459.932,351.057,432.531,386.576,394.6,435.743z M705.023,263.165c-10.639,0-20.947-3.857-29.025-10.871   c-2.777-2.403-6.23-3.626-9.715-3.626c-2.842,0-5.701,0.817-8.195,2.479c-11.816,7.863-25.563,12.019-39.762,12.019   c-19,0-36.924-7.36-50.48-20.734c-3.443-3.403-8.334-4.898-13.107-4.014c-4.768,0.892-8.799,4.056-10.781,8.483   c-4.451,9.879-14.273,16.265-25.021,16.265c-15.156,0-27.49-12.333-27.49-27.491c0-15.157,12.334-27.49,27.49-27.49   c2.52,0,5.172,0.479,8.359,1.512c4.619,1.486,9.691,0.611,13.549-2.338c3.857-2.957,6.021-7.616,5.783-12.474l-0.109-1.768   c-0.041-0.611-0.09-1.231-0.09-1.851c0-39.642,32.248-71.898,71.898-71.898c29.82,0,56.102,17.999,66.939,45.854   c2.412,6.187,8.672,9.971,15.266,9.359c1.469-0.149,2.973-0.231,4.492-0.231c24.484,0,44.41,19.924,44.41,44.408   C749.434,243.249,729.508,263.165,705.023,263.165z" fill="#000000"/></g></svg>