<?xml version="1.0" encoding="iso-8859-1"?>
<!-- Generator: Adobe Illustrator 16.0.0, SVG Export Plug-In . SVG Version: 6.00 Build 0)  -->
<!DOCTYPE svg PUBLIC "-//W3C//DTD SVG 1.1//EN" "http://www.w3.org/Graphics/SVG/1.1/DTD/svg11.dtd">
<svg version="1.1" id="Capa_1" xmlns="http://www.w3.org/2000/svg" xmlns:xlink="http://www.w3.org/1999/xlink" x="0px" y="0px"
	 width="551.891px" height="551.891px" viewBox="0 0 551.891 551.891" style="enable-background:new 0 0 551.891 551.891;"
	 xml:space="preserve">
<g>
	<g>
		<path d="M28.038,549.102c25.744-19.93,55.04-33.963,86.371-42.573c34.554-9.495,69.471-7.571,104.87-7.075
			c51.145,0.716,117.292-14.93,129.878-72.883l25.438,18.176c2.944-13.451,1.652-30.478-3.326-44.688
			c-10.076-0.074-20.168-1.179-30.016-3.333c-9.947-2.179-19.507-5.41-28.656-9.52c-10.462,10.829-18.755,25.763-21.698,39.217
			l34.703-6.652c-14.189,65.509-102.865,54.242-152.11,54.435c-59.373,0.232-116.065,21.438-162.761,57.586
			C-1.739,541.442,15.721,558.637,28.038,549.102z"/>
		<path d="M427.441,3.008C418.173,0.979,408.889,0,399.647,0C324.127,0.006,252.44,65.499,232.039,158.695
			c-21.212,96.901,20.478,189.702,94.327,217.639c5.863,2.219,11.906,4.079,18.158,5.447c6.261,1.37,12.53,2.221,18.788,2.655
			c3.005,0.208,6.011,0.353,9.006,0.353c75.521,0,147.207-65.499,167.608-158.692C562.825,121.497,512.463,21.619,427.441,3.008z"/>
	</g>
</g>
<g>
</g>
<g>
</g>
<g>
</g>
<g>
</g>
<g>
</g>
<g>
</g>
<g>
</g>
<g>
</g>
<g>
</g>
<g>
</g>
<g>
</g>
<g>
</g>
<g>
</g>
<g>
</g>
<g>
</g>
</svg>
