<?xml version="1.0" ?><!DOCTYPE svg  PUBLIC '-//W3C//DTD SVG 1.1//EN'  'http://www.w3.org/Graphics/SVG/1.1/DTD/svg11.dtd'><svg enable-background="new 0 0 512 512" id="Layer_1" version="1.1" viewBox="0 0 512 512" xml:space="preserve" xmlns="http://www.w3.org/2000/svg" xmlns:xlink="http://www.w3.org/1999/xlink"><g><g><line fill="none" stroke="#000000" stroke-linecap="round" stroke-linejoin="round" stroke-miterlimit="10" stroke-width="10" x1="132.7" x2="44.3" y1="434.2" y2="229.5"/><line fill="none" stroke="#000000" stroke-linecap="round" stroke-linejoin="round" stroke-miterlimit="10" stroke-width="10" x1="81.7" x2="178.2" y1="213.1" y2="434.2"/><polyline fill="none" points="    80.8,210.4 293.7,84.7 272.9,49.5 55.8,177.7   " stroke="#000000" stroke-linecap="round" stroke-linejoin="round" stroke-miterlimit="10" stroke-width="10"/><circle cx="54.3" cy="204.9" fill="none" r="26.6" stroke="#000000" stroke-linecap="round" stroke-linejoin="round" stroke-miterlimit="10" stroke-width="10"/></g><path d="   M155.7,434.2c-39.5,0-71.5,27.7-71.5,61.8h143C227.2,461.8,195.2,434.2,155.7,434.2z" fill="none" stroke="#000000" stroke-linecap="round" stroke-linejoin="round" stroke-miterlimit="10" stroke-width="10"/><g><path d="    M418.8,151.8c8.6,14.6,3.7,33.4-10.9,41.9s-33.4,3.7-41.9-10.9" fill="none" stroke="#000000" stroke-linecap="round" stroke-linejoin="round" stroke-miterlimit="10" stroke-width="10"/></g><path d="   M317.7,85.5l-24.2-41.2c-2.8-4.7-1.2-10.9,3.5-13.6l22.6-13.2c4.7-2.8,10.8-1.2,13.6,3.5l24.9,41.4c46.9-14.8,100.2,4.2,126.2,48.4   L298,219.9C271.4,174.6,279.6,119,317.7,85.5z" fill="none" stroke="#000000" stroke-linecap="round" stroke-linejoin="round" stroke-miterlimit="10" stroke-width="10"/><line fill="none" stroke="#000000" stroke-linecap="round" stroke-linejoin="round" stroke-miterlimit="10" stroke-width="10" x1="339.8" x2="254.6" y1="33" y2="83"/><line fill="none" stroke="#000000" stroke-linecap="round" stroke-linejoin="round" stroke-miterlimit="10" stroke-width="10" x1="313" x2="351.5" y1="76.2" y2="53.6"/></g></svg>