<?xml version="1.0" ?><svg style="enable-background:new 0 0 44 44;" version="1.1" viewBox="0 0 44 44" xml:space="preserve" xmlns="http://www.w3.org/2000/svg" xmlns:xlink="http://www.w3.org/1999/xlink"><g id="ghost"/><g id="bat"/><g id="monster"/><g id="jason"/><g id="grave"/><g id="skull"/><g id="cauldron"/><g id="cleaver"/><g id="candle"/><g id="cat"/><g id="owl"/><g id="pumkin"/><g id="eye"/><g id="vampire"/><g id="finger"/><g id="leaf"><g><path d="M42.865,23.488c-0.833-1.439-1.055-3.117-0.624-4.723l0.324-1.211c0.069-0.257,0.032-0.531-0.101-0.76    c-0.133-0.231-0.353-0.398-0.609-0.466l-1.212-0.321c-1.585-0.42-2.965-1.477-3.821-2.958c-0.303-0.456-0.915-0.583-1.375-0.285    l-4.469,2.89c-0.321,0.207-0.713,0.216-1.046,0.021c-0.159-0.092-0.524-0.366-0.493-0.918l0.56-10.725    c0.017-0.317-0.118-0.622-0.363-0.824c-0.245-0.202-0.568-0.277-0.879-0.198c-2.04,0.511-4.17-0.248-5.431-1.931L22.8,0.377    c-0.377-0.502-1.223-0.502-1.6,0l-0.526,0.703c-1.261,1.682-3.392,2.441-5.431,1.93c-0.311-0.078-0.634-0.004-0.879,0.198    c-0.245,0.201-0.38,0.507-0.363,0.824l0.561,10.729c0.03,0.548-0.335,0.823-0.494,0.915c-0.332,0.194-0.724,0.186-1.044-0.02    l-4.471-2.891c-0.232-0.15-0.515-0.195-0.778-0.131c-0.267,0.064-0.496,0.236-0.633,0.474c-0.82,1.423-2.2,2.48-3.785,2.9    l-1.212,0.321c-0.257,0.068-0.477,0.235-0.609,0.466c-0.133,0.23-0.17,0.503-0.101,0.76l0.324,1.211    c0.431,1.606,0.209,3.284-0.624,4.723c-0.144,0.247-0.174,0.543-0.084,0.815c0.089,0.271,0.29,0.491,0.552,0.605l11.918,5.162    c0.471,0.205,0.714,0.725,0.562,1.213l-1.04,3.422c-0.092,0.303-0.035,0.632,0.153,0.887c0.188,0.254,0.487,0.405,0.804,0.405h5    c1.103,0,2,0.898,2,2.001v5.003C21,43.553,21.447,44,22,44s1-0.447,1-1.001v-5.003c0-1.103,0.897-2.001,2-2.001h5    c0.316,0,0.615-0.15,0.804-0.405c0.188-0.255,0.245-0.584,0.153-0.887l-1.04-3.422c-0.001-0.001-0.001-0.003-0.002-0.004    c-0.149-0.484,0.094-1.003,0.562-1.208l11.92-5.163c0.262-0.113,0.463-0.334,0.552-0.605    C43.039,24.032,43.009,23.736,42.865,23.488z M29.681,28.235c-1.405,0.614-2.125,2.173-1.677,3.631l0.646,2.129H25    c-0.733,0-1.409,0.216-2,0.562V27.61l7.447-3.726c0.494-0.247,0.694-0.848,0.447-1.342c-0.248-0.494-0.848-0.693-1.342-0.447    L23,25.372V13.984c0-0.553-0.447-1.001-1-1.001s-1,0.447-1,1.001v11.388l-6.553-3.278c-0.494-0.245-1.094-0.047-1.342,0.447    c-0.247,0.494-0.047,1.095,0.447,1.342L21,27.61v6.947c-0.591-0.346-1.267-0.562-2-0.562h-3.65l0.646-2.126    c0.451-1.458-0.27-3.02-1.678-3.635L3.359,23.488c0.683-1.657,0.803-3.481,0.331-5.241l-0.064-0.241l0.242-0.064    c1.771-0.469,3.347-1.539,4.428-2.961l3.644,2.356c0.952,0.612,2.152,0.639,3.136,0.067c0.978-0.571,1.546-1.626,1.483-2.751    l-0.496-9.5c2.257,0.142,4.455-0.782,5.938-2.53c1.483,1.749,3.681,2.672,5.937,2.53l-0.495,9.496    c-0.063,1.129,0.505,2.185,1.482,2.755c0.984,0.574,2.183,0.546,3.138-0.068l3.645-2.357c1.1,1.438,2.666,2.496,4.425,2.962    l0.242,0.064l-0.064,0.241c-0.472,1.76-0.352,3.584,0.331,5.241L29.681,28.235z"/></g></g><g id="coffin"/><g id="broom"/><g id="moon"/><g id="poison"/><g id="sweet"/><g id="zombie"/><g id="hat"/><g id="candy"/></svg>