<?xml version="1.0" ?><!DOCTYPE svg  PUBLIC '-//W3C//DTD SVG 1.1//EN'  'http://www.w3.org/Graphics/SVG/1.1/DTD/svg11.dtd'><svg enable-background="new 0 0 24 24" height="24px" id="Layer_1" version="1.1" viewBox="0 0 24 24" width="24px" xml:space="preserve" xmlns="http://www.w3.org/2000/svg" xmlns:xlink="http://www.w3.org/1999/xlink"><path d="M23,6H1C0.4,6,0,6.4,0,7v4v10c0,0.6,0.4,1,1,1h1v2h4v-2h12v2h4v-2h1c0.6,0,1-0.4,1-1V11V7C24,6.4,23.6,6,23,6z M9,8h6v8H9V8  z M2,8h6v8H5v-3c0-0.6-0.4-1-1-1H2V8z M2,13h2v7H2V13z M5,23H3v-1h2V23z M5,20v-3h14v3H5z M21,23h-2v-1h2V23z M22,20h-2v-7h2V20z   M22,12h-2c-0.6,0-1,0.4-1,1v3h-3V8h6V12z"/></svg>