<?xml version="1.0" ?><!DOCTYPE svg  PUBLIC '-//W3C//DTD SVG 1.1//EN'  'http://www.w3.org/Graphics/SVG/1.1/DTD/svg11.dtd'><svg enable-background="new 0 0 24 24" height="24px" id="Layer_1" version="1.1" viewBox="0 0 24 24" width="24px" xml:space="preserve" xmlns="http://www.w3.org/2000/svg" xmlns:xlink="http://www.w3.org/1999/xlink"><g><path d="M23,0H1C0.4,0,0,0.4,0,1v22c0,0.6,0.4,1,1,1h22c0.6,0,1-0.4,1-1V1C24,0.4,23.6,0,23,0z M22,22H2V7h20V22z M22,6H2V2h20V6z"/><circle cx="6" cy="4" r="1"/><circle cx="10" cy="4" r="1"/><circle cx="14" cy="4" r="1"/><circle cx="18" cy="4" r="1"/><path d="M21,8H3v13h18V8z M20,20H4V9h16V20z"/><rect height="1" width="6" x="9" y="10"/></g></svg>