<?xml version="1.0" ?><svg style="enable-background:new 0 0 44 44;" version="1.1" viewBox="0 0 44 44" xml:space="preserve" xmlns="http://www.w3.org/2000/svg" xmlns:xlink="http://www.w3.org/1999/xlink"><g id="ghost"/><g id="bat"/><g id="monster"/><g id="jason"/><g id="grave"/><g id="skull"/><g id="cauldron"/><g id="cleaver"/><g id="candle"><g><path d="M37,25.993c-2.757,0-5,2.244-5,5.002v4.001h-6V19.179c0.609-0.574,1-1.394,1-2.301v-2.889c0-1.655-1.346-3.001-3-3.001h-3    v-1.1c1.848-0.352,3-1.691,3-3.622c0-2.121-2.705-5.321-3.247-5.941c-0.381-0.434-1.125-0.434-1.506,0    C18.705,0.945,16,4.145,16,6.266c0,2.114,1.42,3.263,3,3.602v1.12h-3c-1.654,0-3,1.346-3,3.001v6.002    c0,0.811,0.316,1.567,0.873,2.109c0.039,0.04,0.086,0.069,0.127,0.106l0,0v12.79H8.535C7.138,34.997,6,36.134,6,37.533    c0,0.502,0.147,0.989,0.426,1.407L8,41.302V43c0,0.552,0.447,1,1,1h22c0.553,0,1-0.448,1-1v-1.698l1.574-2.362    C33.853,38.521,34,38.035,34,37.533v-6.538c0-1.655,1.346-3.001,3-3.001c0.553,0,1-0.448,1-1S37.553,25.993,37,25.993z M18,6.266    c0-0.805,1.012-2.416,2-3.702c0.988,1.285,2,2.897,2,3.702c0,0.425,0,1.721-2,1.721C19.666,7.987,18,7.904,18,6.266z M15,13.989    c0-0.551,0.448-1,1-1h8c0.552,0,1,0.449,1,1v2.889c0,0.569-0.407,1.066-0.907,1.109c-0.306,0.034-0.582-0.075-0.806-0.302    C23.103,17.503,23,17.257,23,16.99c0-0.883-0.389-1.718-1.065-2.291c-0.677-0.571-1.567-0.812-2.442-0.668    C18.071,14.271,17,15.595,17,17.112v2.767c0,0.569-0.407,1.066-0.907,1.109c-0.307,0.031-0.583-0.075-0.806-0.302    C15.103,20.505,15,20.258,15,19.991V13.989z M16,22.992c0.001,0,0.001,0,0.002,0c0.086,0,0.173-0.003,0.26-0.011    C17.797,22.851,19,21.488,19,19.879v-2.767c0-0.543,0.362-1.029,0.824-1.107c0.399-0.07,0.686,0.11,0.818,0.222    C20.87,16.419,21,16.697,21,16.99c0,0.811,0.316,1.567,0.873,2.109c0.558,0.574,1.322,0.872,2.127,0.875h0v15.023h-8L16,22.992    L16,22.992z M31.91,37.83l-1.742,2.614C30.059,40.608,30,40.802,30,40.999V42H10v-1.001c0-0.197-0.059-0.391-0.168-0.555    L8.09,37.83C8.031,37.741,8,37.639,8,37.533c0-0.295,0.24-0.535,0.535-0.535h22.93c0.295,0,0.535,0.24,0.535,0.535    C32,37.639,31.969,37.741,31.91,37.83z"/></g></g><g id="cat"/><g id="owl"/><g id="pumkin"/><g id="eye"/><g id="vampire"/><g id="finger"/><g id="leaf"/><g id="coffin"/><g id="broom"/><g id="moon"/><g id="poison"/><g id="sweet"/><g id="zombie"/><g id="hat"/><g id="candy"/></svg>