<?xml version="1.0" ?><!DOCTYPE svg  PUBLIC '-//W3C//DTD SVG 1.1//EN'  'http://www.w3.org/Graphics/SVG/1.1/DTD/svg11.dtd'><svg enable-background="new 0 0 24 24" height="24px" id="Layer_1" version="1.1" viewBox="0 0 24 24" width="24px" xml:space="preserve" xmlns="http://www.w3.org/2000/svg" xmlns:xlink="http://www.w3.org/1999/xlink"><g><path d="M23,10H11V8h3c0.6,0,1-0.4,1-1V1c0-0.6-0.4-1-1-1H4C3.4,0,3,0.4,3,1v6c0,0.6,0.4,1,1,1h3v2H1c-0.6,0-1,0.4-1,1v12   c0,0.6,0.4,1,1,1s1-0.4,1-1V12h9v11c0,0.6,0.4,1,1,1s1-0.4,1-1v-3h9v3c0,0.6,0.4,1,1,1s1-0.4,1-1V11C24,10.4,23.6,10,23,10z M4,7V1   h10v6H4z M8,10V8h2v2H8z M22,19h-9v-3h9V19z M22,15h-9v-3h9V15z"/><circle cx="17.5" cy="13.5" r="0.5"/><circle cx="17.5" cy="17.5" r="0.5"/></g></svg>