<?xml version="1.0" ?><!DOCTYPE svg  PUBLIC '-//W3C//DTD SVG 1.1//EN'  'http://www.w3.org/Graphics/SVG/1.1/DTD/svg11.dtd'><svg enable-background="new 0 0 128 128" height="128px" version="1.1" viewBox="0 0 128 128" width="128px" xml:space="preserve" xmlns="http://www.w3.org/2000/svg" xmlns:xlink="http://www.w3.org/1999/xlink"><g id="Layer_2"/><g id="Layer_1"><polyline fill="none" points="   41.247,44.596 48.232,92.908 79.665,92.908 86.649,44.596  " stroke="#231F20" stroke-linecap="round" stroke-linejoin="round" stroke-miterlimit="10" stroke-width="5"/><polygon fill="none" points="   29.605,41.686 97.166,41.686 92.51,28.88 34.262,28.88  " stroke="#231F20" stroke-linecap="round" stroke-linejoin="round" stroke-miterlimit="10" stroke-width="5"/><circle cx="64.196" cy="23.642" fill="none" r="4.85" stroke="#231F20" stroke-linecap="round" stroke-linejoin="round" stroke-miterlimit="10" stroke-width="5"/><rect fill="none" height="18.626" stroke="#231F20" stroke-linecap="round" stroke-linejoin="round" stroke-miterlimit="10" stroke-width="5" width="11.642" x="58.71" y="74.282"/><path d="   M64.072,73.118c0,0-5.333-1.459-5.333-6.866c0-5.406,4.454-7.153,5.333-11.033" fill="none" stroke="#231F20" stroke-linecap="round" stroke-linejoin="round" stroke-miterlimit="10" stroke-width="5"/><path d="   M64.562,73.118c0,0,5.333-1.459,5.333-6.866c0-5.406-4.455-7.153-5.333-11.033" fill="none" stroke="#231F20" stroke-linecap="round" stroke-linejoin="round" stroke-miterlimit="10" stroke-width="5"/><polyline fill="none" points="   69.188,93.491 69.188,109.207 61.038,109.207 61.038,93.491  " stroke="#231F20" stroke-linecap="round" stroke-linejoin="round" stroke-miterlimit="10" stroke-width="5"/><line fill="none" stroke="#231F20" stroke-linecap="round" stroke-linejoin="round" stroke-miterlimit="10" stroke-width="5" x1="38.337" x2="60.456" y1="103.387" y2="103.387"/><line fill="none" stroke="#231F20" stroke-linecap="round" stroke-linejoin="round" stroke-miterlimit="10" stroke-width="5" x1="69.562" x2="87.231" y1="103.387" y2="103.387"/><circle cx="93.351" cy="103.387" fill="none" r="5.044" stroke="#231F20" stroke-linecap="round" stroke-linejoin="round" stroke-miterlimit="10" stroke-width="5"/></g></svg>