<?xml version="1.0" ?><svg style="enable-background:new 0 0 44 44;" version="1.1" viewBox="0 0 44 44" xml:space="preserve" xmlns="http://www.w3.org/2000/svg" xmlns:xlink="http://www.w3.org/1999/xlink"><g id="ghost"/><g id="bat"/><g id="monster"/><g id="jason"/><g id="grave"/><g id="skull"/><g id="cauldron"/><g id="cleaver"/><g id="candle"/><g id="cat"/><g id="owl"/><g id="pumkin"/><g id="eye"/><g id="vampire"/><g id="finger"/><g id="leaf"/><g id="coffin"/><g id="broom"/><g id="moon"><g><g><circle cx="4" cy="9" r="1"/></g><g><circle cx="10" cy="7" r="1"/></g><g><circle cx="6" cy="14" r="1"/></g><g><circle cx="40" cy="33" r="1"/></g><g><circle cx="4" cy="25" r="1"/></g><g><path d="M37,21h-8c-0.553,0-1-0.447-1-1s0.447-1,1-1h8c0.553,0,1,0.447,1,1S37.553,21,37,21z"/></g><g><path d="M25,21h-2c-0.553,0-1-0.447-1-1s0.447-1,1-1h2c0.553,0,1,0.447,1,1S25.553,21,25,21z"/></g><g><path d="M39.5,8c-0.456,0-0.912,0.073-1.352,0.216C37.234,6.844,35.695,6,34,6c-2.125,0-3.95,1.336-4.664,3.233     C28.91,9.08,28.459,9,28,9c-2.206,0-4,1.794-4,4s1.794,4,4,4h11.5c2.481,0,4.5-2.019,4.5-4.5S41.981,8,39.5,8z M39.5,15h-1.056     C38.788,14.409,39,13.732,39,13c0-0.553-0.447-1-1-1s-1,0.447-1,1c0,1.103-0.897,2-2,2h-7c-1.103,0-2-0.897-2-2s0.897-2,2-2     c0.492,0,0.97,0.189,1.345,0.532c0.284,0.263,0.697,0.335,1.055,0.189c0.358-0.147,0.6-0.487,0.62-0.875     C31.102,9.251,32.41,8,34,8c1.228,0,2.317,0.739,2.778,1.883c0.109,0.271,0.332,0.48,0.609,0.574     c0.276,0.092,0.583,0.062,0.832-0.091C38.626,10.123,39.057,10,39.5,10c1.379,0,2.5,1.121,2.5,2.5S40.879,15,39.5,15z"/></g><g><path d="M40.41,22.655c-0.412-0.187-0.903-0.07-1.188,0.284c-2.335,2.894-5.799,4.553-9.503,4.553     c-6.733,0-12.211-5.478-12.211-12.211c0-3.704,1.659-7.168,4.553-9.503c0.354-0.286,0.471-0.774,0.284-1.188     c-0.188-0.414-0.628-0.65-1.078-0.576C13,5.404,7,12.497,7,20.879c0,2.034,0.375,3.977,1.029,5.788h0     c-2.089,0.984-3.618,2.968-3.957,5.334C4.048,32,4.023,32,4,32c-2.206,0-4,1.794-4,4s1.794,4,4,4h14     c1.81,0,3.432-0.809,4.533-2.081C23.056,37.968,23.585,38,24.121,38c8.382,0,15.475-6,16.865-14.267     C41.062,23.285,40.825,22.842,40.41,22.655z M18,38H9c-1.103,0-2-0.897-2-2c0-0.553-0.447-1-1-1s-1,0.447-1,1     c0,0.732,0.212,1.409,0.556,2H4c-1.103,0-2-0.897-2-2s0.897-2,2-2c0.211,0,0.432,0.042,0.674,0.128     c0.312,0.111,0.656,0.062,0.925-0.133c0.268-0.195,0.421-0.51,0.411-0.84C6.009,33.142,6.001,33.014,6,33c0-2.757,2.243-5,5-5     c1.598,0,3.112,0.778,4.052,2.081l0,0C15.651,30.905,16,31.905,16,33c0,0.553,0.447,1,1,1s1-0.447,1-1     c0-1.045-0.241-2.032-0.654-2.924C17.564,30.037,17.781,30,18,30c2.206,0,4,1.794,4,4S20.206,38,18,38z M24.121,36     c-0.156,0-0.308-0.019-0.463-0.023l0,0C23.876,35.357,24,34.693,24,34c0-3.309-2.691-6-6-6c-0.617,0-1.229,0.099-1.825,0.296     C14.856,26.846,12.974,26,11,26c-0.36,0-0.711,0.034-1.056,0.086C9.344,24.46,9,22.711,9,20.879     c0-6.189,3.705-11.583,9.187-13.901c-1.729,2.392-2.68,5.278-2.68,8.304c0,7.836,6.375,14.211,14.211,14.211     c3.025,0,5.912-0.95,8.304-2.68C35.704,32.295,30.311,36,24.121,36z"/></g></g></g><g id="poison"/><g id="sweet"/><g id="zombie"/><g id="hat"/><g id="candy"/></svg>