<?xml version="1.0" ?><!DOCTYPE svg  PUBLIC '-//W3C//DTD SVG 1.1//EN'  'http://www.w3.org/Graphics/SVG/1.1/DTD/svg11.dtd'><svg enable-background="new 0 0 24 24" height="24px" id="Layer_1" version="1.1" viewBox="0 0 24 24" width="24px" xml:space="preserve" xmlns="http://www.w3.org/2000/svg" xmlns:xlink="http://www.w3.org/1999/xlink"><g><path d="M23,12h-9v-2h5c0.6,0,1-0.4,1-1V1c0-0.6-0.4-1-1-1H5C4.4,0,4,0.4,4,1v8c0,0.6,0.4,1,1,1h5v2H1c-0.6,0-1,0.4-1,1v10   c0,0.6,0.4,1,1,1s1-0.4,1-1v-2h20v2c0,0.6,0.4,1,1,1s1-0.4,1-1V13C24,12.4,23.6,12,23,12z M5,9V1h14v8H5z M11,19H2v-5h9V19z M11,10   h2v2h-2V10z M22,19h-9v-5h9V19z"/><rect height="1" width="4" x="5" y="15"/><rect height="1" width="4" x="17" y="15"/></g></svg>